# Blender v2.90.0 OBJ File: 'Environment.blend'
# www.blender.org
mtllib Street light.mtl
o Street_Light_Cube.018
v 0.618264 1.492690 2.467643
v 0.596284 1.458499 2.467643
v 0.618264 1.492690 2.150847
v 0.596284 1.458499 2.150847
v 1.117479 1.042477 2.467643
v 1.095499 1.008286 2.467643
v 1.117479 1.042477 2.150847
v 1.095499 1.008286 2.150847
v 0.679791 0.164842 2.277169
v 0.679791 0.984173 2.277169
v 0.705962 0.164842 2.292279
v 0.705962 0.984173 2.292279
v 0.705962 0.164842 2.322499
v 0.705962 0.984173 2.322499
v 0.679791 0.164842 2.337608
v 0.679791 0.984173 2.337608
v 0.653620 0.164842 2.322499
v 0.653620 0.984173 2.322499
v 0.653620 0.164842 2.292279
v 0.653620 0.984173 2.292279
v 0.705962 0.984173 2.322499
v 0.705962 0.984173 2.322499
v 0.705962 0.984173 2.322499
v 0.705962 0.984173 2.322499
v 0.705962 0.984173 2.322499
v 0.705962 0.984173 2.322499
v 0.687090 1.040749 2.277169
v 0.712369 1.033975 2.292279
v 0.712369 1.033975 2.322498
v 0.687090 1.040749 2.337608
v 0.661811 1.047522 2.322499
v 0.661811 1.047522 2.292279
v 0.708783 1.093508 2.277169
v 0.731448 1.080422 2.292279
v 0.731448 1.080422 2.322498
v 0.708783 1.093507 2.337608
v 0.686119 1.106593 2.322499
v 0.686119 1.106593 2.292279
v 0.743392 1.138854 2.277169
v 0.761898 1.120348 2.292279
v 0.761898 1.120348 2.322498
v 0.743392 1.138854 2.337608
v 0.724887 1.157360 2.322499
v 0.724887 1.157360 2.292279
v 0.788559 1.173698 2.277169
v 0.801644 1.151033 2.292279
v 0.801644 1.151033 2.322498
v 0.788559 1.173698 2.337608
v 0.775473 1.196362 2.322499
v 0.775473 1.196362 2.292279
v 0.841204 1.195664 2.277169
v 0.847978 1.170385 2.292279
v 0.847978 1.170385 2.322498
v 0.841204 1.195664 2.337608
v 0.834431 1.220944 2.322499
v 0.834431 1.220944 2.292279
v 0.897741 1.203257 2.277169
v 0.910230 1.179861 2.292279
v 0.910230 1.179861 2.322498
v 0.897741 1.203257 2.337608
v 0.897742 1.229428 2.322499
v 0.897742 1.229428 2.292279
v 0.675541 1.041239 2.290033
v 0.680221 1.055523 2.298711
v 0.680221 1.055523 2.316067
v 0.675541 1.041240 2.324745
v 0.670862 1.026955 2.316067
v 0.670862 1.026955 2.298711
v 0.523475 1.066598 2.290033
v 0.528154 1.080882 2.298711
v 0.528154 1.080882 2.316067
v 0.523475 1.066598 2.324745
v 0.518795 1.052314 2.316067
v 0.518795 1.052314 2.298711
v 0.387458 1.039919 2.298711
v 0.387458 1.039919 2.316067
v 0.376534 1.050244 2.324745
v 0.365610 1.060569 2.316067
v 0.365610 1.060569 2.298711
v 0.376534 1.050244 2.290033
v 0.460317 1.058331 2.298711
v 0.460317 1.058331 2.316067
v 0.455887 1.072694 2.324745
v 0.451458 1.087058 2.316067
v 0.451458 1.087058 2.298711
v 0.455887 1.072694 2.290033
v 0.489624 1.072982 2.290033
v 0.488481 1.087969 2.298711
v 0.488481 1.087969 2.316067
v 0.489624 1.072982 2.324745
v 0.490767 1.057994 2.316067
v 0.490767 1.057994 2.298711
v 0.418658 1.065066 2.290033
v 0.411127 1.078074 2.298711
v 0.411127 1.078074 2.316067
v 0.418658 1.065066 2.324745
v 0.426189 1.052058 2.316067
v 0.426189 1.052058 2.298711
v 0.665242 0.756416 2.290033
v 0.669921 0.770700 2.298711
v 0.669921 0.770700 2.316067
v 0.665242 0.756416 2.324745
v 0.660562 0.742132 2.316067
v 0.660562 0.742132 2.298711
v 0.519374 1.060921 2.297371
v 0.528050 1.061047 2.302380
v 0.528050 1.061047 2.312398
v 0.519374 1.060921 2.317407
v 0.510699 1.060796 2.312398
v 0.510699 1.060796 2.302380
v 0.590312 0.913321 2.298261
v 0.597553 0.910151 2.302825
v 0.597553 0.910151 2.311953
v 0.590312 0.913321 2.316516
v 0.583070 0.916492 2.311953
v 0.583070 0.916492 2.302825
v 0.603622 1.043294 2.297631
v 0.612021 1.042355 2.302510
v 0.612021 1.042355 2.312269
v 0.603622 1.043294 2.317148
v 0.595224 1.044234 2.312269
v 0.595224 1.044234 2.302510
v 0.374350 1.033805 2.297647
v 0.374350 1.033805 2.319023
v 0.395504 1.075559 2.284589
v 0.395504 1.075559 2.332081
v 0.329933 1.026594 2.294663
v 0.329933 1.026594 2.322007
v 0.310800 1.087854 2.293739
v 0.310800 1.087854 2.322931
v 0.248440 1.086466 2.350814
v 0.248440 1.086466 2.265856
v 0.245324 1.016119 2.280750
v 0.245324 1.016119 2.335921
v 0.200721 1.095526 2.333724
v 0.161279 1.095526 2.313819
v 0.161279 1.095526 2.302852
v 0.200721 1.095526 2.282946
v 0.200344 1.016430 2.280750
v 0.159228 1.016430 2.301500
v 0.159228 1.016430 2.315171
v 0.200344 1.016430 2.335921
v 0.337090 1.075559 2.336236
v 0.337090 1.075559 2.280434
v 0.245166 1.095929 2.282946
v 0.245166 1.095929 2.333724
v 0.191714 1.086466 2.265856
v 0.134988 1.086466 2.294484
v 0.134988 1.086466 2.322186
v 0.191714 1.086466 2.350814
v 0.395504 1.033805 2.284589
v 0.395504 1.033805 2.332081
v 0.337090 1.033805 2.280434
v 0.337090 1.033805 2.336236
v 0.248440 1.022898 2.265856
v 0.248440 1.022898 2.350814
v 0.134988 1.022898 2.294484
v 0.191714 1.022898 2.265856
v 0.191714 1.022898 2.350814
v 0.134988 1.022898 2.322186
v 0.384927 1.033805 2.291118
v 0.384927 1.033805 2.325552
v 0.333512 1.034549 2.287548
v 0.333512 1.034549 2.329122
v 0.246882 1.023858 2.273303
v 0.246882 1.023858 2.343367
v 0.147108 1.024014 2.297992
v 0.196029 1.024014 2.273303
v 0.196029 1.024014 2.343367
v 0.147108 1.024014 2.318679
v 0.679791 0.164842 2.239767
v 0.738353 0.164842 2.273578
v 0.738353 0.164842 2.341200
v 0.679791 0.164842 2.375011
v 0.621228 0.164842 2.341200
v 0.621228 0.164842 2.273578
v 0.679791 -0.036357 2.239767
v 0.738353 -0.036357 2.273578
v 0.738353 -0.036357 2.341200
v 0.679791 -0.036357 2.375011
v 0.621228 -0.036357 2.341200
v 0.621228 -0.036357 2.273578
vt 0.375000 0.000000
vt 0.375000 0.250000
vt 0.625000 0.250000
vt 0.625000 0.000000
vt 0.375000 0.500000
vt 0.625000 0.500000
vt 0.375000 0.750000
vt 0.625000 0.750000
vt 0.375000 1.000000
vt 0.625000 1.000000
vt 0.125000 0.500000
vt 0.125000 0.750000
vt 0.875000 0.750000
vt 0.875000 0.500000
vt 1.000000 0.500000
vt 0.833333 0.500000
vt 0.833333 1.000000
vt 1.000000 1.000000
vt 0.666667 0.500000
vt 0.666667 1.000000
vt 0.500000 0.500000
vt 0.500000 1.000000
vt 0.333333 0.500000
vt 0.333333 1.000000
vt 0.166667 0.500000
vt 0.166667 1.000000
vt -0.000000 0.500000
vt -0.000000 1.000000
vt 0.666667 0.500000
vt 0.500000 0.500000
vt 0.666667 1.000000
vt 0.666667 1.000000
vt 0.666667 1.000000
vt 0.666667 1.000000
vt 0.666667 1.000000
vt 0.333333 1.000000
vt 0.500000 1.000000
vt 0.666667 1.000000
vt 0.500000 1.000000
vt 0.666667 1.000000
vt 0.666667 1.000000
vt 0.833333 1.000000
vt 0.166667 1.000000
vt 1.000000 1.000000
vt -0.000000 1.000000
vt 0.666667 1.000000
vt 0.833333 1.000000
vt 0.833333 1.000000
vt 1.000000 1.000000
vt -0.000000 1.000000
vt 0.166667 1.000000
vt 0.333333 1.000000
vt 0.833333 1.000000
vt 1.000000 1.000000
vt 1.000000 1.000000
vt 0.166667 1.000000
vt 0.333333 1.000000
vt 0.500000 1.000000
vt -0.000000 1.000000
vt 0.166667 1.000000
vt 0.166667 1.000000
vt 0.333333 1.000000
vt 0.333333 1.000000
vt -0.000000 1.000000
vt 0.500000 1.000000
vt 0.666667 1.000000
vt -0.000000 1.000000
vt -0.000000 1.000000
vt 0.166667 1.000000
vt 0.500000 1.000000
vt 0.666667 1.000000
vt 0.833333 1.000000
vt 1.000000 1.000000
vt 0.457846 0.370000
vt 0.457846 0.130000
vt 0.250000 0.010000
vt 0.042154 0.130000
vt 0.042154 0.370000
vt 0.250000 0.490000
vt 0.333333 1.000000
vt 0.500000 1.000000
vt 0.666667 1.000000
vt 0.833333 1.000000
vt 1.000000 1.000000
vt 0.166667 1.000000
vt 0.166667 1.000000
vt 0.333333 1.000000
vt 0.333333 1.000000
vt 0.833333 1.000000
vt 0.833333 1.000000
vt 1.000000 1.000000
vt 1.000000 1.000000
vt 0.500000 1.000000
vt 0.500000 1.000000
vt 0.666667 1.000000
vt 0.666667 1.000000
vt -0.000000 1.000000
vt -0.000000 1.000000
vt 0.333333 1.000000
vt 0.500000 1.000000
vt 0.833333 1.000000
vt 1.000000 1.000000
vt 0.166667 1.000000
vt 0.666667 1.000000
vt -0.000000 1.000000
vt 0.500000 1.000000
vt 0.666667 1.000000
vt -0.000000 1.000000
vt 0.166667 1.000000
vt 0.833333 1.000000
vt 0.333333 1.000000
vt 1.000000 1.000000
vt 0.166667 1.000000
vt 0.333333 1.000000
vt 0.666667 1.000000
vt 0.833333 1.000000
vt -0.000000 1.000000
vt 0.500000 1.000000
vt 1.000000 1.000000
vt 0.333333 1.000000
vt 0.500000 1.000000
vt 0.666667 1.000000
vt -0.000000 1.000000
vt 0.166667 1.000000
vt 0.833333 1.000000
vt 1.000000 1.000000
vt 0.333333 1.000000
vt 0.333333 1.000000
vt 0.500000 1.000000
vt 0.500000 1.000000
vt 0.833333 1.000000
vt 0.833333 1.000000
vt 1.000000 1.000000
vt 1.000000 1.000000
vt 0.166667 1.000000
vt 0.166667 1.000000
vt 0.666667 1.000000
vt 0.666667 1.000000
vt -0.000000 1.000000
vt -0.000000 1.000000
vt 0.333333 1.000000
vt 0.333333 1.000000
vt 0.500000 1.000000
vt 0.500000 1.000000
vt 0.833333 1.000000
vt 0.833333 1.000000
vt 1.000000 1.000000
vt 1.000000 1.000000
vt 0.166667 1.000000
vt 0.166667 1.000000
vt 0.666667 1.000000
vt 0.666667 1.000000
vt -0.000000 1.000000
vt -0.000000 1.000000
vt 0.375000 0.000000
vt 0.375000 0.250000
vt 0.625000 0.250000
vt 0.625000 0.000000
vt 0.375000 0.500000
vt 0.625000 0.500000
vt 0.563263 0.750000
vt 0.584537 0.750000
vt 0.415463 0.750000
vt 0.436737 0.750000
vt 0.444938 0.957238
vt 0.555062 0.957238
vt 0.125000 0.500000
vt 0.125000 0.750000
vt 0.375000 0.750000
vt 0.625000 0.750000
vt 0.875000 0.750000
vt 0.875000 0.500000
vt 0.375000 0.750000
vt 0.375000 0.750000
vt 0.375000 0.500000
vt 0.375000 0.500000
vt 0.625000 0.500000
vt 0.625000 0.750000
vt 0.441812 0.500000
vt 0.425290 0.500000
vt 0.574710 0.500000
vt 0.558188 0.500000
vt 0.625000 0.500000
vt 0.625000 0.750000
vt 0.459241 0.500000
vt 0.459241 0.750000
vt 0.540759 0.750000
vt 0.540759 0.500000
vt 0.584537 0.750000
vt 0.520948 0.750000
vt 0.479052 0.750000
vt 0.415463 0.750000
vt 0.425290 0.500000
vt 0.483864 0.500000
vt 0.516136 0.500000
vt 0.574710 0.500000
vt 0.409969 0.978619
vt 0.375000 1.000000
vt 0.625000 1.000000
vt 0.590031 0.978619
vt 0.405868 0.750000
vt 0.594132 0.750000
vt 0.395232 0.750000
vt 0.604768 0.750000
vt 0.469146 0.750000
vt 0.395232 0.750000
vt 0.604768 0.750000
vt 0.530853 0.750000
vt 0.333333 0.500000
vt 0.333333 0.500000
vt 0.166667 0.500000
vt 0.166667 0.500000
vt -0.000000 0.500000
vt 0.833333 0.500000
vt 1.000000 0.500000
vt 0.750000 0.490000
vt 0.542154 0.370000
vt 0.542154 0.130000
vt 0.750000 0.010000
vt 0.957846 0.130000
vt 0.957846 0.370000
vt 0.666667 0.500000
vt 0.500000 0.500000
vt 1.000000 0.500000
vt 0.833333 0.500000
vt -0.000000 0.500000
vn -0.8412 0.5408 0.0000
vn 0.0000 0.0000 -1.0000
vn 0.8412 -0.5408 0.0000
vn 0.0000 0.0000 1.0000
vn 0.6697 0.7426 0.0000
vn -0.6697 -0.7426 0.0000
vn -0.5000 0.0000 0.8660
vn -1.0000 0.0000 0.0000
vn -0.5000 0.0000 -0.8660
vn 0.5000 0.0000 -0.8660
vn 1.0000 0.0000 -0.0000
vn 0.5000 0.0000 0.8660
vn 0.0000 -1.0000 -0.0000
vn 0.2350 0.0000 0.9720
vn 0.4991 -0.0645 -0.8642
vn 0.1598 0.0000 0.9872
vn -0.4655 0.1913 -0.8642
vn -0.9918 0.1276 0.0000
vn 0.9917 -0.1282 -0.0000
vn -0.4991 0.0643 -0.8642
vn -0.4991 0.0643 0.8642
vn 0.4991 -0.0645 0.8642
vn -0.7951 0.6064 0.0000
vn -0.4654 0.1913 0.8642
vn 0.4654 -0.1914 0.8641
vn 0.4654 -0.1914 -0.8642
vn -0.9250 0.3800 0.0000
vn 0.9248 -0.3805 -0.0000
vn -0.3074 0.3984 0.8642
vn 0.7948 -0.6069 -0.0000
vn -0.4001 0.3052 -0.8642
vn -0.4001 0.3052 0.8642
vn 0.4000 -0.3054 0.8642
vn 0.4000 -0.3054 -0.8642
vn 0.3848 -0.9230 0.0000
vn 0.3073 -0.3985 0.8642
vn 0.3073 -0.3985 -0.8642
vn -0.6111 0.7916 0.0000
vn 0.6106 -0.7919 0.0000
vn -0.3075 0.3984 -0.8641
vn 0.0669 -0.4988 0.8642
vn -0.1939 0.4644 -0.8642
vn -0.1939 0.4644 0.8642
vn 0.1937 -0.4645 0.8642
vn 0.1937 -0.4644 -0.8642
vn -0.3854 0.9227 0.0000
vn -0.9697 -0.2443 -0.0000
vn 0.0669 -0.4988 -0.8642
vn -0.1505 0.9886 0.0000
vn 0.1328 -0.9911 0.0000
vn -0.0726 0.5052 -0.8600
vn -0.0726 0.5052 0.8600
vn 0.1986 0.9801 0.0000
vn -0.0916 -0.4997 0.8614
vn 0.0973 0.4989 -0.8612
vn -0.0915 -0.4997 -0.8614
vn 0.0973 0.4989 0.8612
vn -0.1759 -0.9844 0.0000
vn 0.0830 0.4975 -0.8635
vn -0.0830 -0.4974 0.8635
vn 0.1645 0.9864 0.0000
vn -0.1645 -0.9864 0.0000
vn 0.0830 0.4975 0.8635
vn -0.0830 -0.4975 -0.8635
vn 0.0086 -0.5078 -0.8614
vn 0.0004 0.5091 0.8607
vn 0.0246 -0.9997 0.0000
vn 0.0111 0.9999 0.0000
vn 0.0086 -0.5078 0.8614
vn 0.0004 0.5091 -0.8607
vn -0.1808 0.9835 0.0000
vn 0.2174 -0.9761 0.0000
vn -0.0978 0.5021 0.8593
vn 0.1068 -0.4987 -0.8601
vn -0.0978 0.5021 -0.8592
vn 0.1068 -0.4987 0.8601
vn -0.1668 0.5002 -0.8497
vn 0.1810 -0.4908 -0.8523
vn -0.1668 0.5002 0.8497
vn 0.3590 -0.9334 0.0000
vn -0.2991 0.9542 0.0000
vn 0.1810 -0.4908 0.8523
vn 0.5505 0.2472 -0.7974
vn -0.5303 -0.2714 0.8032
vn 0.9049 0.4256 0.0000
vn -0.8985 -0.4390 0.0000
vn 0.5505 0.2472 0.7974
vn -0.5303 -0.2714 -0.8032
vn 0.5072 -0.0470 -0.8605
vn -0.5051 0.0566 0.8612
vn 0.9955 -0.0947 0.0000
vn -0.9941 0.1088 0.0000
vn 0.5072 -0.0470 0.8605
vn -0.5051 0.0566 -0.8612
vn 0.0000 1.0000 0.0000
vn 0.1229 -0.9924 0.0000
vn 0.1603 -0.9871 0.0000
vn 0.0710 0.0000 -0.9975
vn 0.0710 0.0000 0.9975
vn 0.1623 0.0000 -0.9867
vn 0.1623 0.0000 0.9867
vn 0.1221 0.9925 0.0000
vn -0.0044 -1.0000 0.0000
vn -0.4505 0.0000 -0.8928
vn -0.4505 0.0000 0.8928
vn -0.0059 1.0000 0.0000
vn 0.4236 0.9058 0.0000
vn 0.1815 0.8746 -0.4495
vn 0.1815 0.8746 0.4495
vn -0.1913 0.9054 -0.3791
vn -0.1913 0.9054 0.3791
vn -0.0035 0.8794 -0.4760
vn -0.0035 0.8794 0.4760
vn -0.3258 0.9454 0.0000
vn -0.0099 -0.9990 0.0442
vn -0.0099 -0.9990 -0.0442
vn 0.0967 -0.9840 0.1493
vn 0.0967 -0.9840 -0.1493
vn 0.0580 -0.9917 0.1150
vn 0.0580 -0.9917 -0.1150
vn 0.0917 -0.9958 0.0000
vn -0.0014 -0.9904 -0.1383
vn -0.0014 -0.9904 0.1383
vn -0.0034 -0.6973 -0.7168
vn -0.0034 -0.6973 0.7168
vn -0.5304 -0.8477 0.0000
vn -0.2981 -0.7497 0.5908
vn -0.2981 -0.7497 -0.5908
vn 0.1993 -0.7008 0.6850
vn 0.1993 -0.7008 -0.6850
vn 0.0900 -0.8982 0.4303
vn 0.0900 -0.8982 -0.4303
usemtl None
s off
f 1/1/1 3/2/1 4/3/1 2/4/1
f 3/2/2 7/5/2 8/6/2 4/3/2
f 7/5/3 5/7/3 6/8/3 8/6/3
f 5/7/4 1/9/4 2/10/4 6/8/4
f 3/11/5 1/12/5 5/7/5 7/5/5
f 8/6/6 6/8/6 2/13/6 4/14/6
f 9/15/7 11/16/7 12/17/7 10/18/7
f 11/16/8 13/19/8 14/20/8 12/17/8
f 13/19/9 15/21/9 16/22/9 14/20/9
f 15/21/10 17/23/10 18/24/10 16/22/10
f 17/23/11 19/25/11 20/26/11 18/24/11
f 19/25/12 9/27/12 10/28/12 20/26/12
f 13/19/13 173/29/13 174/30/13 15/21/13
f 14/20/11 21/31/11 12/17/11
f 16/22/11 21/31/11 14/20/11
f 16/22/4 22/32/4 21/31/4
f 21/31/4 22/32/4 12/17/4
f 22/32/4 23/33/4 12/17/4
f 16/22/4 23/33/4 22/32/4
f 16/22/14 24/34/14 23/33/14
f 23/33/11 24/34/11 12/17/11
f 24/34/4 25/35/4 12/17/4
f 16/22/4 25/35/4 24/34/4
f 18/24/15 31/36/15 30/37/15 16/22/15
f 16/22/16 26/38/16 25/35/16
f 25/35/11 26/38/11 12/17/11
f 30/37/17 36/39/17 35/40/17 29/41/17
f 26/38/18 29/41/18 28/42/18 12/17/18
f 20/26/19 32/43/19 31/36/19 18/24/19
f 16/22/20 30/37/20 29/41/20 26/38/20
f 12/17/21 28/42/21 27/44/21 10/18/21
f 10/28/22 27/45/22 32/43/22 20/26/22
f 35/40/23 41/46/23 40/47/23 34/48/23
f 28/42/24 34/48/24 33/49/24 27/44/24
f 27/45/25 33/50/25 38/51/25 32/43/25
f 31/36/26 37/52/26 36/39/26 30/37/26
f 29/41/27 35/40/27 34/48/27 28/42/27
f 32/43/28 38/51/28 37/52/28 31/36/28
f 40/47/29 46/53/29 45/54/29 39/55/29
f 38/51/30 44/56/30 43/57/30 37/52/30
f 36/39/31 42/58/31 41/46/31 35/40/31
f 34/48/32 40/47/32 39/55/32 33/49/32
f 33/50/33 39/59/33 44/56/33 38/51/33
f 37/52/34 43/57/34 42/58/34 36/39/34
f 50/60/35 56/61/35 55/62/35 49/63/35
f 39/59/36 45/64/36 50/60/36 44/56/36
f 43/57/37 49/63/37 48/65/37 42/58/37
f 41/46/38 47/66/38 46/53/38 40/47/38
f 44/56/39 50/60/39 49/63/39 43/57/39
f 42/58/40 48/65/40 47/66/40 41/46/40
f 51/67/41 57/68/41 62/69/41 56/61/41
f 48/65/42 54/70/42 53/71/42 47/66/42
f 46/53/43 52/72/43 51/73/43 45/54/43
f 45/64/44 51/67/44 56/61/44 50/60/44
f 49/63/45 55/62/45 54/70/45 48/65/45
f 47/66/46 53/71/46 52/72/46 46/53/46
f 58/74/47 59/75/47 60/76/47 61/77/47 62/78/47 57/79/47
f 55/62/48 61/80/48 60/81/48 54/70/48
f 53/71/49 59/82/49 58/83/49 52/72/49
f 56/61/50 62/69/50 61/80/50 55/62/50
f 54/70/51 60/81/51 59/82/51 53/71/51
f 52/72/52 58/83/52 57/84/52 51/73/52
f 74/85/53 92/86/53 91/87/53 73/88/53
f 70/89/54 88/90/54 87/91/54 69/92/54
f 73/88/55 91/87/55 90/93/55 72/94/55
f 72/94/56 90/93/56 89/95/56 71/96/56
f 69/97/57 87/98/57 92/86/57 74/85/57
f 71/96/58 89/95/58 88/90/58 70/89/58
f 67/99/59 73/88/59 72/94/59 66/100/59
f 64/101/60 70/89/60 69/92/60 63/102/60
f 68/103/61 74/85/61 73/88/61 67/99/61
f 65/104/62 71/96/62 70/89/62 64/101/62
f 63/105/63 69/97/63 74/85/63 68/103/63
f 66/100/64 72/94/64 71/96/64 65/104/64
f 90/93/65 83/106/65 84/107/65 89/95/65
f 87/98/66 86/108/66 81/109/66 92/86/66
f 89/95/67 84/107/67 85/110/67 88/90/67
f 92/86/68 81/109/68 82/111/68 91/87/68
f 88/90/69 85/110/69 86/112/69 87/91/69
f 91/87/70 82/111/70 83/106/70 90/93/70
f 81/109/71 98/113/71 97/114/71 82/111/71
f 84/107/72 95/115/72 94/116/72 85/110/72
f 86/108/73 93/117/73 98/113/73 81/109/73
f 83/106/74 96/118/74 95/115/74 84/107/74
f 82/111/75 97/114/75 96/118/75 83/106/75
f 85/110/76 94/116/76 93/119/76 86/112/76
f 97/114/77 76/120/77 77/121/77 96/118/77
f 96/118/78 77/121/78 78/122/78 95/115/78
f 93/117/79 80/123/79 75/124/79 98/113/79
f 95/115/80 78/122/80 79/125/80 94/116/80
f 98/113/81 75/124/81 76/120/81 97/114/81
f 94/116/82 79/125/82 80/126/82 93/119/82
f 103/127/83 109/128/83 108/129/83 102/130/83
f 100/131/84 106/132/84 105/133/84 99/134/84
f 104/135/85 110/136/85 109/128/85 103/127/85
f 101/137/86 107/138/86 106/132/86 100/131/86
f 99/139/87 105/140/87 110/136/87 104/135/87
f 102/130/88 108/129/88 107/138/88 101/137/88
f 115/141/89 121/142/89 120/143/89 114/144/89
f 112/145/90 118/146/90 117/147/90 111/148/90
f 116/149/91 122/150/91 121/142/91 115/141/91
f 113/151/92 119/152/92 118/146/92 112/145/92
f 111/153/93 117/154/93 122/150/93 116/149/93
f 114/144/94 120/143/94 119/152/94 113/151/94
f 151/155/11 125/156/11 126/157/11 152/158/11
f 125/156/95 144/159/95 143/160/95 126/157/95
f 128/161/96 134/162/96 133/163/96 127/164/96
f 127/164/97 123/165/97 124/166/97 128/161/97
f 125/167/98 151/168/98 153/169/98 144/159/98
f 143/160/99 154/170/99 152/171/99 126/172/99
f 155/173/2 158/174/2 147/175/2 132/176/2
f 153/169/100 155/173/100 132/176/100 144/159/100
f 143/160/101 131/177/101 156/178/101 154/170/101
f 129/179/102 145/180/102 146/181/102 130/182/102
f 131/177/4 150/183/4 159/184/4 156/178/4
f 148/185/8 157/186/8 160/187/8 149/188/8
f 134/162/103 142/189/103 141/190/103 140/191/103 139/192/103 133/163/103
f 158/174/104 157/186/104 148/185/104 147/175/104
f 150/183/105 149/188/105 160/187/105 159/184/105
f 145/180/106 138/193/106 137/194/106 136/195/106 135/196/106 146/181/106
f 130/182/107 143/160/107 144/159/107 129/179/107
f 129/179/108 144/159/108 132/176/108 145/180/108
f 146/181/109 131/177/109 143/160/109 130/182/109
f 138/193/110 147/175/110 148/185/110 137/194/110
f 136/195/111 149/188/111 150/183/111 135/196/111
f 145/180/112 132/176/112 147/175/112 138/193/112
f 135/196/113 150/183/113 131/177/113 146/181/113
f 137/194/114 148/185/114 149/188/114 136/195/114
f 161/197/13 151/198/13 152/199/13 162/200/13
f 163/201/115 153/169/115 151/198/115 161/197/115
f 162/200/116 152/199/116 154/170/116 164/202/116
f 165/203/117 155/173/117 153/169/117 163/201/117
f 164/202/118 154/170/118 156/178/118 166/204/118
f 167/205/119 157/186/119 158/174/119 168/206/119
f 169/207/120 159/184/120 160/187/120 170/208/120
f 170/208/121 160/187/121 157/186/121 167/205/121
f 166/204/122 156/178/122 159/184/122 169/207/122
f 168/206/123 158/174/123 155/173/123 165/203/123
f 139/192/124 168/206/124 165/203/124 133/163/124
f 134/162/125 166/204/125 169/207/125 142/189/125
f 141/190/126 170/208/126 167/205/126 140/191/126
f 142/189/127 169/207/127 170/208/127 141/190/127
f 140/191/128 167/205/128 168/206/128 139/192/128
f 128/161/129 164/202/129 166/204/129 134/162/129
f 133/163/130 165/203/130 163/201/130 127/164/130
f 124/166/131 162/200/131 164/202/131 128/161/131
f 127/164/132 163/201/132 161/197/132 123/165/132
f 123/165/13 161/197/13 162/200/13 124/166/13
f 175/209/11 181/210/11 182/211/11 176/212/11
f 19/25/13 176/212/13 171/213/13 9/27/13
f 15/21/13 174/30/13 175/209/13 17/23/13
f 11/16/13 172/214/13 173/29/13 13/19/13
f 17/23/13 175/209/13 176/212/13 19/25/13
f 9/15/13 171/215/13 172/214/13 11/16/13
f 177/216/95 182/217/95 181/218/95 180/219/95 179/220/95 178/221/95
f 173/29/9 179/222/9 180/223/9 174/30/9
f 171/215/7 177/224/7 178/225/7 172/214/7
f 176/212/12 182/211/12 177/226/12 171/213/12
f 174/30/10 180/223/10 181/210/10 175/209/10
f 172/214/8 178/225/8 179/222/8 173/29/8
