<?xml version="1.0" encoding="UTF-8" standalone="no"?>
<svg
   xmlns:dc="http://purl.org/dc/elements/1.1/"
   xmlns:cc="http://creativecommons.org/ns#"
   xmlns:rdf="http://www.w3.org/1999/02/22-rdf-syntax-ns#"
   xmlns:svg="http://www.w3.org/2000/svg"
   xmlns="http://www.w3.org/2000/svg"
   xmlns:sodipodi="http://sodipodi.sourceforge.net/DTD/sodipodi-0.dtd"
   xmlns:inkscape="http://www.inkscape.org/namespaces/inkscape"
   width="210mm"
   height="297mm"
   viewBox="0 0 210 297"
   version="1.1"
   id="svg8"
   inkscape:version="1.0.1 (3bc2e813f5, 2020-09-07)"
   sodipodi:docname="KeyboardKeys.svg">
  <defs
     id="defs2">
    <rect
       x="18.107422"
       y="10.285677"
       width="2.3481771"
       height="1.9513021"
       id="rect997" />
  </defs>
  <sodipodi:namedview
     id="base"
     pagecolor="#ffffff"
     bordercolor="#666666"
     borderopacity="1.0"
     inkscape:pageopacity="0.0"
     inkscape:pageshadow="2"
     inkscape:zoom="8"
     inkscape:cx="88.772048"
     inkscape:cy="91.268754"
     inkscape:document-units="mm"
     inkscape:current-layer="layer1"
     inkscape:document-rotation="0"
     showgrid="false"
     inkscape:window-width="1920"
     inkscape:window-height="1017"
     inkscape:window-x="1072"
     inkscape:window-y="843"
     inkscape:window-maximized="1" />
  <metadata
     id="metadata5">
    <rdf:RDF>
      <cc:Work
         rdf:about="">
        <dc:format>image/svg+xml</dc:format>
        <dc:type
           rdf:resource="http://purl.org/dc/dcmitype/StillImage" />
        <dc:title></dc:title>
      </cc:Work>
    </rdf:RDF>
  </metadata>
  <g
     inkscape:label="Layer 1"
     inkscape:groupmode="layer"
     id="layer1">
    <path
       style="fill:#666666;fill-opacity:1;stroke:none;stroke-width:0.307869"
       d="m 25.150912,20.000031 a 1.1666331,1.249964 0 0 0 -1.150886,1.249887 1.1666331,1.249964 0 0 0 0,0.01679 v 4.983404 A 1.1666331,1.249964 0 0 0 25.166587,27.5 h 4.666249 a 1.1666331,1.249964 0 0 0 1.167163,-1.249888 v -5.000197 a 1.1666331,1.249964 0 0 0 -1.167163,-1.249887 h -4.666249 a 1.1666331,1.249964 0 0 0 -0.01568,0 z"
       id="path840-3-0-8-9"
       inkscape:export-xdpi="1266.71"
       inkscape:export-ydpi="1266.71" />
    <path
       style="fill:#666666;fill-opacity:1;stroke:none;stroke-width:0.307869"
       d="m 21.150912,20.000031 a 1.1666331,1.249964 0 0 0 -1.150886,1.249887 1.1666331,1.249964 0 0 0 0,0.01679 v 4.983404 A 1.1666331,1.249964 0 0 0 21.166587,27.5 h 4.666249 a 1.1666331,1.249964 0 0 0 1.167163,-1.249888 v -5.000197 a 1.1666331,1.249964 0 0 0 -1.167163,-1.249887 h -4.666249 a 1.1666331,1.249964 0 0 0 -0.01568,0 z"
       id="path840-3-0-8"
       inkscape:export-xdpi="1266.71"
       inkscape:export-ydpi="1266.71" />
    <path
       id="path840-3"
       style="fill:#666666;fill-opacity:1;stroke:none;stroke-width:0.307868"
       d="m 17.150913,8.0000282 a 1.1666331,1.249964 0 0 0 -1.150887,1.2498878 1.1666331,1.249964 0 0 0 0,0.016793 v 4.983403 A 1.1666331,1.249964 0 0 0 17.166588,15.5 h 4.666248 A 1.1666331,1.249964 0 0 0 23,14.250112 V 9.249916 A 1.1666331,1.249964 0 0 0 21.832836,8.0000282 h -4.666248 a 1.1666331,1.249964 0 0 0 -0.01568,0 z"
       inkscape:export-xdpi="1266.71"
       inkscape:export-ydpi="1266.71" />
    <path
       id="path840"
       style="fill:#808080;fill-opacity:1;stroke:none;stroke-width:0.254946"
       d="m 17.486559,8.2500283 a 1,1 0 0 0 -0.986503,0.999939 1,1 0 0 0 0,0.013436 V 13.25024 a 1,1 0 0 0 0.999939,0.999939 h 3.999756 A 1,1 0 0 0 22.500207,13.25024 V 9.2499673 a 1,1 0 0 0 -1.000456,-0.999939 h -3.999756 a 1,1 0 0 0 -0.01344,0 z"
       inkscape:export-xdpi="1266.71"
       inkscape:export-ydpi="1266.71" />
    <path
       style="fill:#666666;fill-opacity:1;stroke:none;stroke-width:0.307869"
       d="m 17.150913,20.000031 a 1.1666331,1.249964 0 0 0 -1.150887,1.249887 1.1666331,1.249964 0 0 0 0,0.01679 v 4.983404 A 1.1666331,1.249964 0 0 0 17.166588,27.5 h 4.666248 A 1.1666331,1.249964 0 0 0 23,26.250112 v -5.000197 a 1.1666331,1.249964 0 0 0 -1.167164,-1.249887 h -4.666248 a 1.1666331,1.249964 0 0 0 -0.01568,0 z"
       id="path840-3-0"
       inkscape:export-xdpi="1266.71"
       inkscape:export-ydpi="1266.71" />
    <path
       id="path840-7"
       style="fill:#808080;fill-opacity:1;stroke:none;stroke-width:0.254946"
       d="m 17.486559,20.250031 a 1,1 0 0 0 -0.986503,0.999939 1,1 0 0 0 0,0.01344 v 3.986838 a 1,1 0 0 0 0.999939,0.999938 h 3.999756 a 1,1 0 0 0 1.000455,-0.999938 v -4.000273 a 1,1 0 0 0 -1.000455,-0.999939 h -3.999756 a 1,1 0 0 0 -0.01344,0 z"
       inkscape:export-xdpi="1266.71"
       inkscape:export-ydpi="1266.71" />
    <path
       id="path840-7-5"
       style="fill:#808080;fill-opacity:1;stroke:none;stroke-width:0.254946"
       d="m 21.486526,20.250018 a 1,1 0 0 0 -0.986503,0.999939 1,1 0 0 0 0,0.01344 v 3.986838 a 1,1 0 0 0 0.999939,0.999938 h 3.999756 a 1,1 0 0 0 1.000455,-0.999938 v -4.000273 a 1,1 0 0 0 -1.000455,-0.999939 h -3.999756 a 1,1 0 0 0 -0.01344,0 z"
       inkscape:export-xdpi="1266.71"
       inkscape:export-ydpi="1266.71" />
    <path
       id="path840-7-5-7"
       style="fill:#808080;fill-opacity:1;stroke:none;stroke-width:0.254946"
       d="m 25.486526,20.250018 a 1,1 0 0 0 -0.986503,0.999939 1,1 0 0 0 0,0.01344 v 3.986838 a 1,1 0 0 0 0.999939,0.999938 h 3.999756 a 1,1 0 0 0 1.000455,-0.999938 v -4.000273 a 1,1 0 0 0 -1.000455,-0.999939 h -3.999756 a 1,1 0 0 0 -0.01344,0 z"
       inkscape:export-xdpi="1266.71"
       inkscape:export-ydpi="1266.71" />
  </g>
</svg>
